<?xml version="1.0" encoding="UTF-8"?>
<svg width="1024px" height="1024px" viewBox="0 0 1024 1024" version="1.1" xmlns="http://www.w3.org/2000/svg" xmlns:xlink="http://www.w3.org/1999/xlink">
    <!-- Generator: Sketch 45.2 (43514) - http://www.bohemiancoding.com/sketch -->
    <title>Icon Shape</title>
    <desc>Created with Sketch.</desc>
    <defs>
        <path d="M357.009067,0 L666.990933,0 C769.792,0 821.179733,0 876.5184,17.4933333 C936.9344,39.4837333 984.516267,87.0656 1006.50667,147.4816 C1024,202.811733 1024,254.216533 1024,357.009067 L1024,666.990933 C1024,769.792 1024,821.179733 1006.50667,876.5184 C984.516267,936.9344 936.9344,984.516267 876.5184,1006.49813 C821.179733,1024 769.792,1024 666.990933,1024 L357.009067,1024 C254.208,1024 202.811733,1024 147.4816,1006.49813 C87.0656,984.516267 39.4837333,936.9344 17.4933333,876.5184 C0,821.179733 0,769.792 0,666.990933 L0,357.009067 C0,254.216533 0,202.811733 17.4933333,147.4816 C39.4837333,87.0656 87.0656,39.4837333 147.4816,17.4933333 C202.811733,0 254.208,0 357.009067,0 L357.009067,0" id="path-1"></path>
    </defs>
    <g id="Page-1" stroke="none" stroke-width="1" fill="none" fill-rule="evenodd">
        <mask id="mask-2" fill="white">
            <use xlink:href="#path-1"></use>
        </mask>
        <use id="Icon-Shape" fill="#000000" xlink:href="#path-1"></use>
    </g>
</svg>